:SAMPLES-PER-SECOND 30
:FULLY-SPECIFIED
:DEGREES
299
root  -19.8648 32.8545 54.1763 170.833 73.2294 163.314
RightUpLeg  -26.7256 -5.50168 -15.5572
RightLeg  14.9445 2.17473 0.433504
RightFoot  8.55464 0.00311236 0.335908
RightToes  -42.9517 -0.242481 -0.331181
Spine  6.73148 -0.663632 -0.539673
Spine1  13.3429 -1.65856 -0.669947
HEad  -2.05765 33.9292 -21.1107
LeftShoulder1  0 -2.42657e-020 -4.95415e-022
LeftArm  -44.3863 9.40489 -84.4389
LeftForeArm  55.7142 -15.7249 -2.80543
LeftHand  0.109965 -8.99919 -1.76861
RightShoulder  0 2.42657e-020 1.07489e-018
RightArm  -69.9979 -21.5443 81.5337
RightForeArm  60.4347 11.6512 2.03709
RightHand  -0.903933 24.7453 -3.74993
LeftUpLeg  1.34176 -9.35976 -3.17998
LeftLeg  9.46382 -15.7047 -1.57108
LeftFoot  -7.307 0.131469 2.05873
LeftToes  -9.24495 1.28829e-006 1.15665e-007
300
root  -18.6627 32.6794 54.8163 173.646 72.8319 167
RightUpLeg  -28.3878 -4.29729 -13.7215
RightLeg  21.6819 5.23051 1.69474
RightFoot  13.3729 -0.0977075 1.21092
RightToes  -44.7603 -0.257583 -0.340403
Spine  6.61567 -0.846119 -0.0889764
Spine1  13.1355 -2.05823 0.101187
HEad  -1.12576 35.0082 -21.9879
LeftShoulder1  0 -2.42657e-020 -4.95415e-022
LeftArm  -47.4983 11.4117 -84.3612
LeftForeArm  55.2608 -15.7898 -2.81865
LeftHand  0.0664444 -8.32239 -1.28427
RightShoulder  0 2.42657e-020 1.07489e-018
RightArm  -69.2635 -19.2987 77.1147
RightForeArm  62.244 10.6281 1.84633
RightHand  -0.917351 24.1895 -3.91007
LeftUpLeg  2.44538 -10.9956 -1.30333
LeftLeg  12.0123 -14.079 -2.04136
LeftFoot  -9.5038 0.197338 2.37359
LeftToes  -11.9767 1.28829e-006 1.15665e-007
301
root  -17.4505 32.5967 55.3564 177.572 70.9515 172.232
RightUpLeg  -27.8242 -6.94086 -11.235
RightLeg  27.1637 5.3226 2.30207
RightFoot  9.27949 -0.0386764 0.854048
RightToes  -45.6741 -0.265322 -0.34488
Spine  6.60963 -1.38027 0.843023
Spine1  13.0908 -3.16191 1.69808
HEad  0.149842 35.3819 -22.0014
LeftShoulder1  0 -2.42657e-020 -4.95415e-022
LeftArm  -53.1997 12.4044 -85.877
LeftForeArm  56.6136 -15.0639 -2.6785
LeftHand  0.040353 -8.52227 -0.912272
RightShoulder  0 2.42657e-020 1.07489e-018
RightArm  -67.8952 -16.8017 71.7722
RightForeArm  61.908 10.2951 1.78662
RightHand  -0.827514 23.8844 -3.54201
LeftUpLeg  3.10002 -15.2485 0.30362
LeftLeg  16.0438 -11.1699 -2.43301
LeftFoot  -11.0175 0.208434 2.16095
LeftToes  -15.4353 1.28829e-006 1.15665e-007
302
root  -16.461 32.65 55.885 -178.385 68.5381 176.639
RightUpLeg  -25.967 -10.0108 -8.62465
RightLeg  27.7318 5.72167 2.54144
RightFoot  7.01366 -0.0166595 0.649332
RightToes  -46.0729 -0.268721 -0.346795
Spine  6.42209 -1.82333 1.85817
Spine1  12.6366 -4.09925 3.39426
HEad  1.53517 35.2437 -21.3666
LeftShoulder1  0 -2.42657e-020 -4.95415e-022
LeftArm  -56.4556 12.305 -87.5659
LeftForeArm  56.8312 -14.0439 -2.48659
LeftHand  0.0378675 -8.44772 -0.883399
RightShoulder  0 2.42657e-020 1.07489e-018
RightArm  -67.1009 -13.9567 66.722
RightForeArm  61.2628 10.2318 1.77661
RightHand  -0.876851 23.2095 -3.89904
LeftUpLeg  0.652999 -15.8873 2.443
LeftLeg  22.7414 -8.46561 -2.91435
LeftFoot  -11.0206 0.155479 1.61156
LeftToes  -20.1713 1.28829e-006 1.15665e-007
303
root  -15.5948 32.8941 56.3881 -175.096 67.2667 179.738
RightUpLeg  -23.7829 -9.80535 -6.35994
RightLeg  25.6375 4.23976 1.70241
RightFoot  6.24683 0.00174851 0.35594
RightToes  -43.8265 -0.249749 -0.335701
Spine  6.06258 -1.64904 2.72084
Spine1  11.8453 -3.72064 4.70666
HEad  3.67621 35.0279 -19.4448
LeftShoulder1  0 -2.42657e-020 -4.95415e-022
LeftArm  -57.3952 11.818 -89.1119
LeftForeArm  56.7828 -13.0365 -2.29936
LeftHand  0.0976357 -8.64745 -1.66258
RightShoulder  0 2.42657e-020 1.07489e-018
RightArm  -67.8893 -11.0971 62.5336
RightForeArm  61.8975 10.1123 1.75351
RightHand  -1.27515 22.0921 -6.15698
LeftUpLeg  -3.16291 -12.6962 4.54637
LeftLeg  30.4555 -5.45735 -2.75106
LeftFoot  -8.28016 0.0503978 0.696238
LeftToes  -23.7034 1.28829e-006 1.15665e-007
304
root  -14.7998 33.2232 56.7782 -174.049 66.542 -179.354
RightUpLeg  -20.9859 -7.65866 -5.16367
RightLeg  22.2529 1.38679 0.463257
RightFoot  6.57693 0.0205517 0.019863
RightToes  -42.3355 -0.237404 -0.327932
Spine  5.80557 -1.32059 3.05027
Spine1  11.3242 -2.9162 4.9592
HEad  5.01081 35.0939 -17.8605
LeftShoulder1  0 -2.42657e-020 -4.95415e-022
LeftArm  -55.8181 11.6308 -90.1949
LeftForeArm  57.7238 -13.4075 -2.36621
LeftHand  0.217416 -9.49821 -2.98869
RightShoulder  0 2.42657e-020 1.07489e-018
RightArm  -68.8615 -7.99674 59.9415
RightForeArm  61.4538 10.4024 1.80712
RightHand  -1.82057 20.9919 -9.43642
LeftUpLeg  -6.8022 -8.65014 4.94018
LeftLeg  37.8173 -0.962512 -0.657428
LeftFoot  -4.91742 -0.00494491 -0.11517
LeftToes  -16.4191 1.28829e-006 1.15665e-007
305
root  -14.077 33.5112 57.0357 -175.062 65.9186 179.725
RightUpLeg  -18.0098 -6.58473 -4.86183
RightLeg  19.1292 -0.33258 -0.0928139
RightFoot  6.74386 0.032906 -0.180921
RightToes  -40.3623 -0.221384 -0.31716
Spine  5.78899 -0.991982 2.94488
Spine1  11.2991 -2.0548 4.39448
HEad  5.31529 34.9208 -16.8276
LeftShoulder1  0 -2.42657e-020 -4.95415e-022
LeftArm  -51.1805 11.6046 -90.824
LeftForeArm  57.9415 -15.1225 -2.68679
LeftHand  0.284111 -10.5734 -3.44183
RightShoulder  0 2.42657e-020 1.07489e-018
RightArm  -68.7644 -4.70109 58.4888
RightForeArm  58.4585 11.3934 1.99422
RightHand  -1.98115 20.5698 -10.5193
LeftUpLeg  -10.0358 -4.58601 3.83542
LeftLeg  44.2123 3.84041 3.2714
LeftFoot  -1.90562 -0.00612372 -0.368215
LeftToes  -6.44096 1.28829e-006 1.15665e-007
306
root  -13.4315 33.6799 57.2368 -176.204 65.6181 178.777
RightUpLeg  -15.9742 -7.56145 -4.60338
RightLeg  17.6571 0.356326 0.0883394
RightFoot  6.16584 0.025644 -0.0965684
RightToes  -38.6533 -0.207815 -0.307389
Spine  5.95269 -0.5208 2.83684
Spine1  11.597 -0.889903 3.78045
HEad  4.91645 34.417 -16.7539
LeftShoulder1  0 -2.42657e-020 -4.95415e-022
LeftArm  -46.7895 11.0791 -91.4997
LeftForeArm  58.371 -16.9436 -3.03281
LeftHand  0.256543 -11.9871 -2.81469
RightShoulder  0 2.42657e-020 1.07489e-018
RightArm  -67.9722 -1.38619 57.0623
RightForeArm  54.8033 12.7612 2.25308
RightHand  -2.04192 20.7289 -10.7638
LeftUpLeg  -12.8846 -0.502131 2.47529
LeftLeg  49.2749 5.6944 5.77705
LeftFoot  -1.51655 -0.00521854 -0.394299
LeftToes  -11.7265 1.28829e-006 1.15665e-007
307
root  -12.8654 33.7433 57.4616 -176.535 64.2141 178.557
RightUpLeg  -13.8239 -8.26833 -4.1464
RightLeg  15.6879 -0.293788 -0.0621059
RightFoot  6.01652 0.0276794 -0.164738
RightToes  -39.0269 -0.210756 -0.309559
Spine  6.17224 -0.231708 2.88688
Spine1  11.9991 -0.0960003 3.48052
HEad  4.62242 32.8961 -17.0633
LeftShoulder1  0 -2.42657e-020 -4.95415e-022
LeftArm  -40.6956 10.0521 -92.0687
LeftForeArm  55.4606 -19.1109 -3.46112
LeftHand  0.182175 -11.2643 -2.21844
RightShoulder  0 2.42657e-020 1.07489e-018
RightArm  -65.1449 1.52447 55.3955
RightForeArm  49.2065 14.5205 2.59097
RightHand  -1.81622 20.5792 -9.61275
LeftUpLeg  -16.5385 2.32087 1.43135
LeftLeg  53.6027 4.53014 5.35404
LeftFoot  -2.41668 -0.0095157 -0.451145
LeftToes  -9.6705 1.28829e-006 1.15665e-007
308
root  -12.3364 33.7393 57.6572 -176.451 62.2581 178.883
RightUpLeg  -12.2762 -9.99998 -3.59756
RightLeg  15.3057 -0.222555 -0.0453015
RightFoot  4.89703 0.0237318 -0.145418
RightToes  -38.3025 -0.205067 -0.305334
Spine  6.49162 -0.076329 3.13774
Spine1  12.588 0.41145 3.57023
HEad  4.79799 31.3369 -17.6804
LeftShoulder1  0 -2.42657e-020 -4.95415e-022
LeftArm  -38.0227 8.17856 -93.2926
LeftForeArm  54.0299 -20.4802 -3.7367
LeftHand  0.183102 -11.4815 -2.19245
RightShoulder  0 2.42657e-020 1.07489e-018
RightArm  -61.8257 4.09219 53.3897
RightForeArm  45.4745 16.4532 2.96333
RightHand  -1.50631 21.174 -7.67849
LeftUpLeg  -19.8683 3.66746 0.469558
LeftLeg  55.9879 3.35404 4.32075
LeftFoot  -1.06532 -0.00202532 -0.217856
LeftToes  -15.0598 1.28829e-006 1.15665e-007
309
root  -11.8653 33.7259 57.8531 -176.187 60.4537 179.306
RightUpLeg  -11.1904 -12.4712 -2.94608
RightLeg  15.1381 0.806124 0.163837
RightFoot  4.00138 0.0152035 -0.0576608
RightToes  -34.733 -0.177834 -0.283479
Spine  6.81897 0.206712 3.37066
Spine1  13.1625 1.15028 3.72309
HEad  5.78184 29.7266 -17.7191
LeftShoulder1  0 -2.42657e-020 -4.95415e-022
LeftArm  -35.4688 6.10237 -94.48
LeftForeArm  52.4026 -21.3332 -3.91228
LeftHand  0.187653 -11.6103 -2.21686
RightShoulder  0 2.42657e-020 1.07489e-018
RightArm  -58.524 6.14283 51.5931
RightForeArm  43.9246 18.3479 3.33235
RightHand  -1.40365 21.7128 -6.94145
LeftUpLeg  -22.9723 5.31181 -0.269068
LeftLeg  56.5295 2.70193 3.55064
LeftFoot  -1.34001 -0.00232763 -0.199047
LeftToes  -13.9027 1.28829e-006 1.15665e-007
310
root  -11.3999 33.7455 57.9457 -176.716 59.1976 178.748
RightUpLeg  -10.304 -13.1744 -2.93346
RightLeg  15.2532 0.0828522 0.017438
RightFoot  3.19878 0.0136552 -0.0907936
RightToes  -37.8168 -0.201282 -0.302461
Spine  7.12608 0.579831 3.27507
Spine1  13.6663 2.04351 3.45586
HEad  7.30115 28.2975 -17.331
LeftShoulder1  0 -2.42657e-020 -4.95415e-022
LeftArm  -32.9534 4.24231 -95.2583
LeftForeArm  51.8579 -21.8189 -4.01243
LeftHand  0.176217 -11.5987 -2.10608
RightShoulder  0 2.42657e-020 1.07489e-018
RightArm  -56.2741 8.00369 50.707
RightForeArm  44.6544 19.8881 3.63568
RightHand  -1.5931 22.0089 -7.81124
LeftUpLeg  -25.2883 7.43345 -1.53582
LeftLeg  54.8842 3.52458 4.36405
LeftFoot  -0.36739 -0.000322316 -0.10054
LeftToes  -16.8628 1.28829e-006 1.15665e-007
311
root  -10.9665 33.7711 58.0092 -176.89 58.0943 178.371
RightUpLeg  -9.42098 -14.0345 -2.79349
RightLeg  14.8116 0.0733986 0.0150341
RightFoot  2.36191 0.0092094 -0.0691736
RightToes  -33.6722 -0.170009 -0.276661
Spine  7.32926 0.911885 3.10997
Spine1  13.9998 2.88174 3.04808
HEad  9.34276 27.2375 -16.4973
LeftShoulder1  0 -2.42657e-020 -4.95415e-022
LeftArm  -30.9577 3.015 -95.6537
LeftForeArm  52.3078 -22.4705 -4.14569
LeftHand  0.173812 -11.7726 -2.05692
RightShoulder  0 2.42657e-020 1.07489e-018
RightArm  -54.7551 9.96294 50.8496
RightForeArm  45.4571 20.9286 3.84361
RightHand  -1.81776 22.8526 -8.60846
LeftUpLeg  -27.1319 9.23242 -2.47622
LeftLeg  51.3721 4.0434 4.42183
LeftFoot  0.646397 -0.000177929 0.0315335
LeftToes  -17.3308 1.28829e-006 1.15665e-007
312
root  -10.5351 33.7749 58.022 -177.022 57.13 178.034
RightUpLeg  -8.50369 -14.7893 -2.75243
RightLeg  14.3545 -0.0851831 -0.0153345
RightFoot  1.61407 0.00631541 -0.0471693
RightToes  -33.7642 -0.170682 -0.277258
Spine  7.49653 1.22154 2.92529
Spine1  14.2895 3.71951 2.532
HEad  11.9365 26.4152 -15.4466
LeftShoulder1  0 -2.42657e-020 -4.95415e-022
LeftArm  -29.2163 2.30121 -95.6198
LeftForeArm  52.1847 -23.046 -4.26546
LeftHand  0.136387 -11.9921 -1.66934
RightShoulder  0 2.42657e-020 1.07489e-018
RightArm  -54.3409 12.2148 51.7449
RightForeArm  45.4299 21.2567 3.91022
RightHand  -1.92799 21.9534 -9.54903
LeftUpLeg  -28.6461 11.5502 -3.38321
LeftLeg  46.8765 4.17571 3.90429
LeftFoot  3.65719 -0.0120572 0.377652
LeftToes  -20.5498 1.28829e-006 1.15665e-007
